<svg width="60" height="60" viewBox="0 0 60 60" fill="none" xmlns="http://www.w3.org/2000/svg">
<circle cx="30" cy="30" r="30" fill="white"/>
<path d="M15.7161 22.9112C15.4198 24.4047 15.4231 25.9421 15.7258 27.4343C16.0285 28.9266 16.6246 30.3441 17.4796 31.6048C18.3284 32.8696 19.42 33.9538 20.6912 34.7946C21.9624 35.6354 23.388 36.2161 24.8855 36.5031C27.403 36.9958 30.0132 36.6329 32.3002 35.4722L34.5926 38.8702L31.0063 41.2825L32.6624 43.7374L36.2487 41.3252L38.6887 44.942L41.1473 43.2883L38.7127 39.6794L42.299 37.2671L40.6428 34.8122L37.0565 37.2244L34.7668 33.8304C36.7005 32.1467 38.0166 29.8671 38.5068 27.3525C38.8031 25.8589 38.7998 24.3216 38.4971 22.8293C38.1944 21.337 37.5983 19.9196 36.7433 18.6589C35.8946 17.394 34.803 16.3098 33.5317 15.469C32.2605 14.6282 30.8349 14.0475 29.3374 13.7606C26.3162 13.1728 23.1848 13.8063 20.6309 15.5219C18.077 17.2376 16.3093 19.8952 15.7161 22.9112ZM35.5898 26.781C35.3759 27.8946 34.9427 28.9547 34.3155 29.8998C33.6883 30.845 32.8794 31.6565 31.9358 32.2872C30.9958 32.9234 29.9388 33.3671 28.8259 33.5923C27.713 33.8176 26.5664 33.8201 25.4525 33.5997C24.3373 33.3861 23.2757 32.9536 22.3291 32.3273C21.3825 31.701 20.5699 30.8933 19.9382 29.951C19.3011 29.0125 18.8568 27.957 18.6312 26.8457C18.4055 25.7345 18.403 24.5896 18.6238 23.4774C18.8377 22.3638 19.2709 21.3037 19.8981 20.3585C20.5253 19.4133 21.3342 18.6019 22.2778 17.9711C23.2178 17.3349 24.2748 16.8913 25.3877 16.666C26.5006 16.4407 27.6472 16.4382 28.7611 16.6587C29.8763 16.8723 30.9379 17.3048 31.8845 17.9311C32.8311 18.5574 33.6437 19.3651 34.2754 20.3073C34.9125 21.2459 35.3568 22.3014 35.5824 23.4126C35.8081 24.5239 35.8106 25.6688 35.5898 26.781Z" fill="url(#paint0_linear_1177_128)"/>
<defs>
<linearGradient id="paint0_linear_1177_128" x1="-41.1737" y1="111.739" x2="125.903" y2="-80.443" gradientUnits="userSpaceOnUse">
<stop stop-color="#FF61C6"/>
<stop offset="1" stop-color="#FF24A0"/>
</linearGradient>
</defs>
</svg>
