<svg width="32" height="31" viewBox="0 0 32 31" fill="none" xmlns="http://www.w3.org/2000/svg">
<path d="M0 3.32143C0 1.48706 1.52085 0 3.39691 0H8.49228C9.11766 0 9.62459 0.49569 9.62459 1.10714C9.62459 1.71859 9.11766 2.21428 8.49228 2.21428H3.39691C2.77156 2.21428 2.26461 2.70997 2.26461 3.32143V8.30357C2.26461 8.91504 1.75765 9.41071 1.1323 9.41071C0.506955 9.41071 0 8.91504 0 8.30357V3.32143Z" fill="white"/>
<path d="M22.0799 1.10714C22.0799 0.49569 22.5869 0 23.2122 0H28.3076C30.1837 0 31.7045 1.48706 31.7045 3.32143V8.30357C31.7045 8.91504 31.1976 9.41071 30.5722 9.41071C29.9469 9.41071 29.4399 8.91504 29.4399 8.30357V3.32143C29.4399 2.70997 28.933 2.21428 28.3076 2.21428H23.2122C22.5869 2.21428 22.0799 1.71859 22.0799 1.10714Z" fill="white"/>
<path d="M1.1323 21.5893C1.75765 21.5893 2.26461 22.085 2.26461 22.6964V27.6786C2.26461 28.29 2.77156 28.7857 3.39691 28.7857H8.49228C9.11766 28.7857 9.62459 29.2814 9.62459 29.8929C9.62459 30.5043 9.11766 31 8.49228 31H3.39691C1.52085 31 0 29.513 0 27.6786V22.6964C0 22.085 0.506955 21.5893 1.1323 21.5893Z" fill="white"/>
<path d="M30.5722 21.5893C31.1976 21.5893 31.7045 22.085 31.7045 22.6964V27.6786C31.7045 29.513 30.1837 31 28.3076 31H23.2122C22.5869 31 22.0799 30.5043 22.0799 29.8929C22.0799 29.2814 22.5869 28.7857 23.2122 28.7857H28.3076C28.933 28.7857 29.4399 28.29 29.4399 27.6786V22.6964C29.4399 22.085 29.9469 21.5893 30.5722 21.5893Z" fill="white"/>
<path d="M12.385 15.1158C12.2205 14.6813 11.7968 14.3929 11.323 14.3929C10.8493 14.3929 10.4256 14.6813 10.2611 15.1158L9.21854 17.8708L6.40087 18.8902C5.95652 19.051 5.66152 19.4653 5.66152 19.9286C5.66152 20.3918 5.95652 20.8061 6.40087 20.967L9.21854 21.9863L10.2611 24.7413C10.4256 25.1759 10.8493 25.4643 11.323 25.4643C11.7968 25.4643 12.2205 25.1759 12.385 24.7413L13.4275 21.9863L16.2452 20.967C16.6896 20.8061 16.9846 20.3918 16.9846 19.9286C16.9846 19.4653 16.6896 19.051 16.2452 18.8902L13.4275 17.8708L12.385 15.1158Z" fill="white"/>
<path d="M22.0096 14.0087C21.8451 13.5741 21.4214 13.2857 20.9476 13.2857C20.4739 13.2857 20.0502 13.5741 19.8856 14.0087L19.3018 15.5515L17.724 16.1223C17.2795 16.2832 16.9846 16.6975 16.9846 17.1607C16.9846 17.6239 17.2795 18.0382 17.724 18.1991L19.3018 18.7699L19.8856 20.3127C20.0502 20.7473 20.4739 21.0357 20.9476 21.0357C21.4214 21.0357 21.8451 20.7473 22.0096 20.3127L22.5934 18.7699L24.1713 18.1991C24.6157 18.0382 24.9107 17.6239 24.9107 17.1607C24.9107 16.6975 24.6157 16.2832 24.1713 16.1223L22.5934 15.5515L22.0096 14.0087Z" fill="white"/>
<path d="M16.3481 6.25863C16.1836 5.82415 15.7599 5.53571 15.2861 5.53571C14.8124 5.53571 14.3886 5.82415 14.2241 6.25863L13.6403 7.80148L12.0624 8.37238C11.618 8.53314 11.323 8.94748 11.323 9.41071C11.323 9.87394 11.618 10.2882 12.0624 10.4491L13.6403 11.0199L14.2241 12.5627C14.3886 12.9973 14.8124 13.2857 15.2861 13.2857C15.7599 13.2857 16.1836 12.9973 16.3481 12.5627L16.9319 11.0199L18.5098 10.4491C18.9542 10.2882 19.2492 9.87394 19.2492 9.41071C19.2492 8.94748 18.9542 8.53314 18.5098 8.37238L16.9319 7.80148L16.3481 6.25863Z" fill="white"/>
</svg>
