<svg width="22" height="16" viewBox="0 0 22 16" fill="none" xmlns="http://www.w3.org/2000/svg">
<path fill-rule="evenodd" clip-rule="evenodd" d="M1.57143 0C4.79181 0 16.2381 0 16.2381 0C16.655 0 17.0547 0.165523 17.3491 0.460427C17.644 0.754808 17.8095 1.15448 17.8095 1.57143V5.07205L21.1352 2.22147C21.2908 2.08843 21.5092 2.05752 21.6951 2.14291C21.8811 2.22881 22 2.41424 22 2.61905V13.0952C22 13.3 21.8811 13.4855 21.6951 13.5714C21.5092 13.6568 21.2908 13.6259 21.1352 13.4928L17.8095 10.6422V14.1429C17.8095 14.5598 17.644 14.9595 17.3491 15.2539C17.0547 15.5488 16.655 15.7143 16.2381 15.7143H1.57143C0.703476 15.7143 0 15.0108 0 14.1429V1.57143C0 0.703476 0.703476 0 1.57143 0Z" fill="white"/>
</svg>
