<svg width="22" height="22" viewBox="0 0 22 22" fill="none" xmlns="http://www.w3.org/2000/svg">
<g clip-path="url(#clip0_225_549)">
<path fill-rule="evenodd" clip-rule="evenodd" d="M11 0C4.92488 0 0 4.92488 0 11C0 17.0751 4.92488 22 11 22C17.0751 22 22 17.0751 22 11C22 4.92488 17.0751 0 11 0ZM10.6937 9.32158L10.6706 8.94094C10.6013 7.95442 11.2091 7.05334 12.1709 6.70381C12.5249 6.57951 13.125 6.56397 13.5174 6.67274C13.6713 6.71935 13.9637 6.87468 14.1714 7.01452L14.5485 7.27086L14.9639 7.13882C15.1948 7.06887 15.5026 6.95237 15.641 6.87468C15.7718 6.80478 15.8873 6.76592 15.8873 6.78925C15.8873 6.92129 15.6026 7.37183 15.3641 7.62039C15.0409 7.96996 15.1333 8.00103 15.7872 7.76797C16.1797 7.63592 16.1873 7.63593 16.1104 7.78351C16.0642 7.8612 15.8257 8.13308 15.5718 8.38163C15.1409 8.80889 15.1179 8.8555 15.1179 9.21282C15.1179 9.76433 14.8562 10.914 14.5946 11.5432C14.1099 12.7239 13.0712 13.9434 12.0324 14.5571C10.5705 15.4193 8.62386 15.6368 6.985 15.1319C6.43871 14.961 5.5 14.526 5.5 14.4484C5.5 14.425 5.78467 14.394 6.13094 14.3862C6.85419 14.3707 7.57744 14.1687 8.19298 13.8114L8.60851 13.5628L8.13143 13.3997C7.45433 13.1666 6.84649 12.6307 6.69263 12.1258C6.64643 11.9626 6.66183 11.9548 7.09271 11.9548L7.53899 11.9471L7.16196 11.7684C6.71568 11.5432 6.3079 11.1625 6.10784 10.7741C5.96163 10.4945 5.77702 9.78762 5.83087 9.73326C5.84623 9.70998 6.00783 9.75654 6.1925 9.81869C6.72338 10.0129 6.79264 9.96628 6.48487 9.64003C5.90778 9.0497 5.73082 8.1719 6.00783 7.34076L6.13864 6.9679L6.64643 7.4728C7.6852 8.4904 8.90858 9.09631 10.3089 9.27497L10.6937 9.32158Z" fill="white"/>
</g>
<defs>
<clipPath id="clip0_225_549">
<rect width="22" height="22" fill="white"/>
</clipPath>
</defs>
</svg>
