<svg width="38" height="37" viewBox="0 0 38 37" fill="none" xmlns="http://www.w3.org/2000/svg">
<path d="M14.1027 36.7744C15.1182 36.7744 15.9414 35.9512 15.9414 34.9357C15.9414 33.9202 15.1182 33.097 14.1027 33.097C13.0873 33.097 12.264 33.9202 12.264 34.9357C12.264 35.9512 13.0873 36.7744 14.1027 36.7744Z" fill="white"/>
<path d="M23.9092 36.7744C24.9247 36.7744 25.7479 35.9512 25.7479 34.9357C25.7479 33.9202 24.9247 33.097 23.9092 33.097C22.8937 33.097 22.0705 33.9202 22.0705 34.9357C22.0705 35.9512 22.8937 36.7744 23.9092 36.7744Z" fill="white"/>
<path d="M6.73521e-05 19.0003C-0.0066001 21.4964 0.481824 23.969 1.43707 26.2751C2.39232 28.5811 3.79543 30.6748 5.5652 32.4351L8.1639 29.8364C6.02141 27.6933 4.56248 24.9631 3.97159 21.9909C3.38069 19.0188 3.68437 15.9381 4.84421 13.1385C6.00405 10.339 7.96798 7.94615 10.4877 6.26267C13.0074 4.57919 15.9696 3.68064 19 3.68064C22.0303 3.68064 24.9926 4.57919 27.5123 6.26267C30.032 7.94615 31.9959 10.339 33.1557 13.1385C34.3156 15.9381 34.6192 19.0188 34.0284 21.9909C33.4375 24.9631 31.9785 27.6933 29.836 29.8364L32.4347 32.4351C34.6442 30.2257 36.2746 27.5055 37.1817 24.5155C38.0887 21.5254 38.2444 18.3579 37.6348 15.2933C37.0253 12.2288 35.6693 9.36185 33.6871 6.94652C31.7049 4.53118 29.1576 2.64198 26.2709 1.44627C23.3841 0.250549 20.2471 -0.214777 17.1375 0.0915079C14.028 0.397793 11.042 1.46623 8.44401 3.20219C5.84604 4.93814 3.71629 7.28803 2.24341 10.0437C0.770538 12.7993 4.81783e-06 15.8757 6.73521e-05 19.0003Z" fill="white"/>
<path d="M24.4486 10.959L17.7067 17.7009C17.526 17.8693 17.3812 18.0723 17.2807 18.2978C17.1802 18.5234 17.1261 18.7668 17.1218 19.0137C17.1174 19.2606 17.1628 19.5058 17.2553 19.7348C17.3478 19.9637 17.4854 20.1717 17.66 20.3463C17.8346 20.5209 18.0426 20.6586 18.2716 20.751C18.5005 20.8435 18.7457 20.8889 18.9926 20.8846C19.2395 20.8802 19.483 20.8262 19.7085 20.7257C19.9341 20.6252 20.1371 20.4803 20.3054 20.2996L27.0473 13.5577L24.4486 10.959Z" fill="white"/>
</svg>
