<svg width="45" height="35" viewBox="0 0 45 35" fill="none" xmlns="http://www.w3.org/2000/svg">
<path d="M39.2614 17.2206V20.3745C41.0806 21.3652 42.0603 22.4409 42.0603 23.3831C42.0603 25.5511 36.8914 28.4294 28.1576 29.335V32.181C37.0301 31.274 44.9111 28.255 44.9111 23.3831C44.9111 20.7922 42.6823 18.7249 39.2614 17.2206Z" fill="white"/>
<path d="M17.0643 34.9501L22.2755 31.6689C22.371 31.609 22.429 31.504 22.429 31.3914V30.7039C22.429 30.5913 22.371 30.4863 22.2755 30.4264L17.0643 27.1451C16.9698 27.0858 16.8538 27.0838 16.7536 27.1304C16.7464 27.1337 16.7379 27.1318 16.7312 27.1356L16.1088 27.4796C16.0043 27.5376 15.9397 27.6474 15.9397 27.7666V29.2447C7.69901 28.2498 2.85078 25.4831 2.85078 23.3831C2.85078 22.4931 3.72217 21.4835 5.35234 20.5394V17.3575C2.10245 18.8498 0 20.8691 0 23.3831C0 28.1059 7.40491 31.0868 15.9392 32.0917V34.3286C15.9392 34.4479 16.0043 34.5581 16.1083 34.6156L16.7308 34.9591C16.7379 34.9629 16.746 34.9615 16.7531 34.9648C16.7968 34.9848 16.8424 35 16.8895 35C16.9507 35.0005 17.0116 34.9834 17.0643 34.9501Z" fill="white"/>
<path d="M8.25069 23.3831C8.79567 23.9052 9.53165 24.2288 10.3408 24.2288H34.5701C35.3792 24.2288 36.1152 23.9052 36.6602 23.3831C37.2365 22.8305 37.5985 22.056 37.5985 21.2003V9.79481V7.5712C37.5985 5.90634 36.2349 4.54272 34.5701 4.54272H30.9348C30.435 4.54272 29.8967 4.15549 29.7399 3.68083L28.7996 0.861886C28.6414 0.387231 28.1045 0 27.6046 0H17.3062C16.8064 0 16.268 0.387231 16.1112 0.861886L15.171 3.68083C15.0127 4.15549 14.4758 4.54272 13.976 4.54272H10.3408C8.67594 4.54272 7.31231 5.90634 7.31231 7.5712V9.79481V21.2003C7.31231 22.0565 7.67436 22.831 8.25069 23.3831ZM33.51 7.23053C34.2831 7.23053 34.9098 7.85723 34.9098 8.62836C34.9098 9.4014 34.2831 10.0281 33.51 10.0281C32.7389 10.0281 32.1103 9.4014 32.1103 8.62836C32.1103 7.85723 32.7389 7.23053 33.51 7.23053ZM22.4557 6.60336C26.7594 6.60336 30.2487 10.0922 30.2487 14.3964C30.2487 18.7007 26.7594 22.1891 22.4557 22.1891C18.1519 22.1891 14.6626 18.7002 14.6626 14.396C14.6626 10.0918 18.1519 6.60336 22.4557 6.60336Z" fill="white"/>
<path d="M22.4557 18.2531C24.5857 18.2531 26.3123 16.5264 26.3123 14.3964C26.3123 12.2665 24.5857 10.5398 22.4557 10.5398C20.3257 10.5398 18.5991 12.2665 18.5991 14.3964C18.5991 16.5264 20.3257 18.2531 22.4557 18.2531Z" fill="white"/>
</svg>
