<svg width="23" height="23" viewBox="0 0 23 23" fill="none" xmlns="http://www.w3.org/2000/svg">
<g clip-path="url(#clip0_1167_942)">
<path d="M7.92061 10.3068H7.12519C6.68589 10.3068 6.32977 10.663 6.32977 11.1023C6.32977 11.5416 6.68589 11.8977 7.12519 11.8977H7.92061C8.3599 11.8977 8.71602 11.5416 8.71602 11.1023C8.71602 10.663 8.3599 10.3068 7.92061 10.3068Z" fill="white"/>
<path d="M11.8977 10.3068H11.1023C10.663 10.3068 10.3069 10.663 10.3069 11.1023C10.3069 11.5416 10.663 11.8977 11.1023 11.8977H11.8977C12.337 11.8977 12.6931 11.5416 12.6931 11.1023C12.6931 10.663 12.337 10.3068 11.8977 10.3068Z" fill="white"/>
<path d="M15.8748 10.3068H15.0794C14.6401 10.3068 14.284 10.663 14.284 11.1023C14.284 11.5416 14.6401 11.8977 15.0794 11.8977H15.8748C16.3141 11.8977 16.6702 11.5416 16.6702 11.1023C16.6702 10.663 16.3141 10.3068 15.8748 10.3068Z" fill="white"/>
<path d="M7.92061 13.4886H7.12519C6.68589 13.4886 6.32977 13.8447 6.32977 14.284C6.32977 14.7233 6.68589 15.0794 7.12519 15.0794H7.92061C8.3599 15.0794 8.71602 14.7233 8.71602 14.284C8.71602 13.8447 8.3599 13.4886 7.92061 13.4886Z" fill="white"/>
<path d="M11.8977 13.4886H11.1023C10.663 13.4886 10.3069 13.8447 10.3069 14.284C10.3069 14.7233 10.663 15.0794 11.1023 15.0794H11.8977C12.337 15.0794 12.6931 14.7233 12.6931 14.284C12.6931 13.8447 12.337 13.4886 11.8977 13.4886Z" fill="white"/>
<path d="M15.8748 13.4886H15.0794C14.6401 13.4886 14.284 13.8447 14.284 14.284C14.284 14.7233 14.6401 15.0794 15.0794 15.0794H15.8748C16.3141 15.0794 16.6702 14.7233 16.6702 14.284C16.6702 13.8447 16.3141 13.4886 15.8748 13.4886Z" fill="white"/>
<path d="M7.92061 16.6702H7.12519C6.68589 16.6702 6.32977 17.0263 6.32977 17.4656C6.32977 17.9049 6.68589 18.261 7.12519 18.261H7.92061C8.3599 18.261 8.71602 17.9049 8.71602 17.4656C8.71602 17.0263 8.3599 16.6702 7.92061 16.6702Z" fill="white"/>
<path d="M11.8977 16.6702H11.1023C10.663 16.6702 10.3069 17.0263 10.3069 17.4656C10.3069 17.9049 10.663 18.261 11.1023 18.261H11.8977C12.337 18.261 12.6931 17.9049 12.6931 17.4656C12.6931 17.0263 12.337 16.6702 11.8977 16.6702Z" fill="white"/>
<path d="M15.8748 16.6702H15.0794C14.6401 16.6702 14.284 17.0263 14.284 17.4656C14.284 17.9049 14.6401 18.261 15.0794 18.261H15.8748C16.3141 18.261 16.6702 17.9049 16.6702 17.4656C16.6702 17.0263 16.3141 16.6702 15.8748 16.6702Z" fill="white"/>
<path d="M20.0564 4.34129H17.869C17.7592 4.34129 17.6702 4.25226 17.6702 4.14244V2.75046C17.6702 2.31116 17.3141 1.95504 16.8748 1.95504C16.4355 1.95504 16.0794 2.31116 16.0794 2.75046V6.52869C16.0794 6.85816 15.8123 7.12525 15.4828 7.12525C15.1533 7.12525 14.8862 6.85816 14.8862 6.52869V4.739C14.8862 4.51935 14.7082 4.34129 14.4885 4.34129H9.51717C9.40735 4.34129 9.31832 4.25226 9.31832 4.14244V2.75046C9.31832 2.31116 8.9622 1.95504 8.5229 1.95504C8.0836 1.95504 7.72748 2.31116 7.72748 2.75046V6.52869C7.72748 6.85816 7.46039 7.12525 7.13092 7.12525C6.80145 7.12525 6.53436 6.85816 6.53436 6.52869V4.739C6.53436 4.51935 6.3563 4.34129 6.13665 4.34129H4.94353C4.06493 4.34129 3.35269 5.05353 3.35269 5.93212V19.4542C3.35269 20.3328 4.06493 21.045 4.94353 21.045H20.0564C20.935 21.045 21.6473 20.3328 21.6473 19.4542V5.93212C21.6473 5.05353 20.935 4.34129 20.0564 4.34129ZM20.0564 19.0565C20.0564 19.2761 19.8784 19.4542 19.6587 19.4542H5.34123C5.12159 19.4542 4.94353 19.2761 4.94353 19.0565V9.5115C4.94353 9.29185 5.12159 9.11379 5.34123 9.11379H19.6587C19.8784 9.11379 20.0564 9.29185 20.0564 9.5115V19.0565Z" fill="white"/>
</g>
<defs>
<clipPath id="clip0_1167_942">
<rect width="23" height="23" fill="white"/>
</clipPath>
</defs>
</svg>
