<svg width="60" height="60" viewBox="0 0 60 60" fill="none" xmlns="http://www.w3.org/2000/svg">
<circle cx="30" cy="30" r="30" fill="white"/>
<path d="M26.4049 44.6682C29.428 44.6644 32.3262 43.4633 34.4635 41.3283C36.6008 39.1932 37.8025 36.2988 37.805 33.2801C37.8055 30.8022 36.9912 28.3927 35.4872 26.4218L41.1944 20.7183V27.077H44.1069V16H32.5227V18.9083H38.8907L33.4479 24.3431C31.4446 22.7557 28.9623 21.8918 26.4049 21.892C23.3813 21.8958 20.4826 23.0968 18.3445 25.2316C16.2065 27.3665 15.0037 30.2609 15 33.2801C15.0037 36.2992 16.2065 39.1937 18.3445 41.3285C20.4826 43.4634 23.3813 44.6644 26.4049 44.6682ZM26.4049 24.8003C28.6584 24.8003 30.8197 25.6942 32.4132 27.2854C34.0066 28.8765 34.9019 31.0346 34.9019 33.2848C34.9019 35.535 34.0066 37.6931 32.4132 39.2842C30.8197 40.8754 28.6584 41.7693 26.4049 41.7693C24.1513 41.7693 21.9901 40.8754 20.3966 39.2842C18.8031 37.6931 17.9079 35.535 17.9079 33.2848C17.9116 31.037 18.8085 28.8826 20.4016 27.2945C21.9947 25.7064 24.1538 24.8144 26.4049 24.8145V24.8003Z" fill="url(#paint0_linear_1177_127)"/>
<defs>
<linearGradient id="paint0_linear_1177_127" x1="204.054" y1="-53.0873" x2="43.3231" y2="24.5283" gradientUnits="userSpaceOnUse">
<stop stop-color="#4B9AEA"/>
<stop offset="1" stop-color="#305FF2"/>
</linearGradient>
</defs>
</svg>
