<svg width="21" height="21" viewBox="0 0 21 21" fill="none" xmlns="http://www.w3.org/2000/svg">
<g clip-path="url(#clip0_1167_1017)">
<path d="M4.90001 1.68004C4.66201 1.68004 4.48001 1.86204 4.48001 2.10004V5.04004C4.48001 5.27804 4.66201 5.46004 4.90001 5.46004C5.13801 5.46004 5.32001 5.27804 5.32001 5.04004V2.52004H18.48V18.9C18.48 19.138 18.662 19.32 18.9 19.32C19.138 19.32 19.32 19.138 19.32 18.9V2.10004C19.32 1.86204 19.138 1.68004 18.9 1.68004H4.90001ZM7.00001 3.78004C6.76201 3.78004 6.58001 3.96204 6.58001 4.20004V6.30004H3.78001C2.61801 6.30004 1.68001 7.23804 1.68001 8.40004C1.68001 9.56204 2.61801 10.5 3.78001 10.5H6.58001V13.02C6.58001 13.258 6.76201 13.44 7.00001 13.44H16.8C17.038 13.44 17.22 13.258 17.22 13.02V4.20004C17.22 3.96204 17.038 3.78004 16.8 3.78004H7.00001ZM3.78001 7.14004H10.5C11.2 7.14004 11.76 7.70004 11.76 8.40004C11.76 9.10004 11.2 9.66004 10.5 9.66004H3.78001C3.08001 9.66004 2.52001 9.10004 2.52001 8.40004C2.52001 7.70004 3.08001 7.14004 3.78001 7.14004ZM4.62001 7.98004C4.38805 7.98004 4.20001 8.16808 4.20001 8.40004C4.20001 8.632 4.38805 8.82004 4.62001 8.82004C4.85197 8.82004 5.04001 8.632 5.04001 8.40004C5.04001 8.16808 4.85197 7.98004 4.62001 7.98004ZM6.30001 7.98004C6.06805 7.98004 5.88001 8.16808 5.88001 8.40004C5.88001 8.632 6.06805 8.82004 6.30001 8.82004C6.53197 8.82004 6.72001 8.632 6.72001 8.40004C6.72001 8.16808 6.53197 7.98004 6.30001 7.98004ZM7.98001 7.98004C7.74805 7.98004 7.56001 8.16808 7.56001 8.40004C7.56001 8.632 7.74805 8.82004 7.98001 8.82004C8.21197 8.82004 8.40001 8.632 8.40001 8.40004C8.40001 8.16808 8.21197 7.98004 7.98001 7.98004ZM9.66001 7.98004C9.42805 7.98004 9.24001 8.16808 9.24001 8.40004C9.24001 8.632 9.42805 8.82004 9.66001 8.82004C9.89197 8.82004 10.08 8.632 10.08 8.40004C10.08 8.16808 9.89197 7.98004 9.66001 7.98004ZM4.90001 11.62C4.66201 11.62 4.48001 11.802 4.48001 12.04V18.9C4.48001 19.138 4.66201 19.32 4.90001 19.32C5.13801 19.32 5.32001 19.138 5.32001 18.9V15.54H13.3C13.538 15.54 13.72 15.358 13.72 15.12C13.72 14.882 13.538 14.7 13.3 14.7H5.32001V12.04C5.32001 11.802 5.13801 11.62 4.90001 11.62ZM15.4 14.7C15.162 14.7 14.98 14.882 14.98 15.12C14.98 15.358 15.162 15.54 15.4 15.54H16.8C17.038 15.54 17.22 15.358 17.22 15.12C17.22 14.882 17.038 14.7 16.8 14.7H15.4ZM6.58001 16.8C6.34201 16.8 6.16001 16.982 6.16001 17.22C6.16001 17.458 6.34201 17.64 6.58001 17.64H9.10001C9.33801 17.64 9.52001 17.458 9.52001 17.22C9.52001 16.982 9.33801 16.8 9.10001 16.8H6.58001ZM11.2 16.8C10.962 16.8 10.78 16.982 10.78 17.22V18.9C10.78 19.138 10.962 19.32 11.2 19.32H16.8C17.038 19.32 17.22 19.138 17.22 18.9V17.22C17.22 16.982 17.038 16.8 16.8 16.8H11.2ZM11.62 17.64H16.38V18.48H11.62V17.64Z" fill="white"/>
</g>
<defs>
<clipPath id="clip0_1167_1017">
<rect width="21" height="21" fill="white"/>
</clipPath>
</defs>
</svg>
