<svg width="14" height="10" viewBox="0 0 14 10" fill="none" xmlns="http://www.w3.org/2000/svg">
<path fill-rule="evenodd" clip-rule="evenodd" d="M7 0C7.86627 0 8.81636 0.13388 9.85029 0.401644C11.024 0.714035 11.974 1.13055 12.7006 1.6512C13.5669 2.26111 14 2.94539 14 3.70405V5.57839H0V3.70405C0 2.94539 0.433129 2.26111 1.2994 1.6512C2.02595 1.13055 2.97604 0.714035 4.1497 0.401644C5.18364 0.13388 6.13373 0 7 0ZM9.67626 9.74327C9.02321 9.74327 8.42097 9.56919 7.86951 9.22104C7.31805 8.87289 6.87907 8.40482 6.55254 7.81683C6.22602 7.22884 6.06276 6.5867 6.06276 5.89039C6.06276 5.19409 6.22602 4.54421 6.55254 3.94074C6.87907 3.33728 7.31805 2.86148 7.86951 2.51332C8.42097 2.16517 9.02321 1.9911 9.67626 1.9911C10.3293 1.9911 10.9315 2.16517 11.483 2.51332C12.0345 2.86148 12.4735 3.33728 12.8 3.94074C13.1265 4.54421 13.2898 5.19409 13.2898 5.89039C13.2898 6.5867 13.1265 7.22884 12.8 7.81683C12.4735 8.40482 12.0345 8.87289 11.483 9.22104C10.9315 9.56919 10.3293 9.74327 9.67626 9.74327Z" fill="white"/>
</svg>
