<svg width="22" height="22" viewBox="0 0 22 22" fill="none" xmlns="http://www.w3.org/2000/svg">
<g clip-path="url(#clip0_1174_37)">
<path d="M10.5417 1.80581C8.26375 1.80581 6.41666 3.65289 6.41666 5.93081C6.41666 9.02456 10.5417 13.1496 10.5417 13.1496C10.5417 13.1496 14.6667 9.02456 14.6667 5.93081C14.6667 3.65289 12.8196 1.80581 10.5417 1.80581ZM10.5417 4.55581C11.3007 4.55581 11.9167 5.17181 11.9167 5.93081C11.9167 6.68981 11.3007 7.30581 10.5417 7.30581C9.78266 7.30581 9.16666 6.68981 9.16666 5.93081C9.16666 5.17181 9.78266 4.55581 10.5417 4.55581ZM16.4409 5.14125C16.4757 5.40067 16.5 5.66222 16.5 5.93081C16.5 6.28922 16.4515 6.65185 16.3818 7.01577C17.2939 7.24127 18.0045 7.43723 18.1704 7.52065C18.219 7.5619 18.2755 7.59957 18.3351 7.63165C18.3379 7.75998 18.3081 8.05246 18.1257 8.69871C17.9148 8.97096 17.2702 9.73557 16.7202 10.3745C16.4076 10.7375 16.4294 11.2814 16.7686 11.6206L18.0791 12.9293C17.8774 13.1704 17.623 13.4617 17.4131 13.7028C15.9556 15.3729 15.46 15.9848 15.603 16.6623C15.6608 16.9382 15.8306 17.2539 16.2028 17.9066C16.2193 17.935 16.2356 17.9632 16.2511 17.9907C16.0605 18.108 15.8738 18.215 15.7409 18.2718C15.5346 18.1618 15.1917 17.9642 14.903 17.7973C12.6792 16.5158 12.0986 16.2489 11.4798 16.5817C10.9848 16.8484 10.2121 17.6399 9.72168 18.2091C9.03509 17.9598 7.68075 17.3766 6.41666 16.8019V15.5558C6.41666 15.3899 6.37213 15.2261 6.28597 15.0831L3.7723 10.8973C4.06838 10.46 4.68502 9.72641 5.34961 8.99949C5.05444 8.34682 4.82712 7.67865 4.6997 7.0104C3.40445 8.34506 2.18093 9.9326 1.97835 10.3387C1.72077 10.8566 1.82348 11.2292 1.97656 11.4648L4.58333 15.81V17.3891C4.58333 17.7466 4.79057 18.0705 5.11507 18.2199C8.24915 19.671 9.54214 20.1875 10.1746 20.1875C10.5606 20.1875 10.7008 19.9955 10.8621 19.7059C11.0207 19.4767 11.7101 18.7296 12.1226 18.3703C12.6001 18.5838 13.5105 19.1077 13.9899 19.3836C14.8662 19.8887 15.1557 20.0527 15.4097 20.1105C16.2099 20.2883 17.3637 19.5095 17.9824 19.0255C18.6543 18.4994 18.2756 17.8349 17.7962 16.9953C17.7091 16.8422 17.587 16.6266 17.499 16.4689C17.774 16.0775 18.3965 15.3624 18.797 14.9041C20.0648 13.453 20.5389 12.9103 19.8981 12.1577L18.6645 10.9241C19.7655 9.63163 19.793 9.53924 19.848 9.3504C20.1211 8.41357 20.6259 6.68953 19.2142 6.01853C18.9685 5.87003 18.3457 5.60692 16.4409 5.14125ZM8.25 13.7225C7.74374 13.7225 7.33333 14.1329 7.33333 14.6391C7.33333 15.1454 7.74374 15.5558 8.25 15.5558C8.75626 15.5558 9.16666 15.1454 9.16666 14.6391C9.16666 14.1329 8.75626 13.7225 8.25 13.7225Z" fill="white"/>
</g>
<defs>
<clipPath id="clip0_1174_37">
<rect width="22" height="22" fill="white"/>
</clipPath>
</defs>
</svg>
