<svg width="34" height="18" viewBox="0 0 34 18" fill="none" xmlns="http://www.w3.org/2000/svg">
<path d="M33.9938 9.01343C33.9938 11.3812 33.9938 13.7499 33.9938 16.1176C33.9938 16.9003 33.7086 17.5118 32.933 17.8366C32.1574 18.1614 31.4814 17.9804 30.8592 17.459C29.4771 16.2996 28.0897 15.145 26.6795 14.016C26.0573 13.518 25.7826 12.9348 25.7929 12.1648C25.8199 10.0535 25.8199 7.94143 25.7929 5.82875C25.7846 5.09006 26.0376 4.52259 26.6411 4.03926C28.1 2.86518 29.5289 1.66763 30.9671 0.47496C31.5488 -0.00641161 32.1979 -0.14241 32.9061 0.161872C33.6143 0.466153 33.9834 1.01993 33.9845 1.76155C33.9969 4.17884 34 6.59614 33.9938 9.01343Z" fill="white"/>
<path d="M24.5009 5.59785C24.502 5.09795 24.4401 4.59971 24.3164 4.11362C23.6704 1.66078 21.4131 0.0356615 18.6767 0.0268559C15.9859 0.0190287 13.2952 0.0268559 10.6044 0.0268559C7.83586 0.0268559 5.06734 0.0219639 2.29881 0.0268559C0.877217 0.0268559 0 0.865342 0 2.20085C0 5.60763 0 9.01409 0 12.4202C0 15.6411 2.48856 17.9971 5.8979 17.9971C11.305 18.001 16.7124 18.001 22.1202 17.9971C23.6248 17.9971 24.5051 17.1635 24.5051 15.7468C24.5103 12.3615 24.5165 8.97919 24.5009 5.59785ZM15.9434 9.06627C15.927 9.13408 15.8939 9.19728 15.8467 9.25068C15.7995 9.30408 15.7395 9.34616 15.6717 9.37348C13.8053 10.3636 11.9365 11.3547 10.0652 12.3468C9.72821 12.5249 9.38707 12.6961 9.048 12.8703H8.88728C8.78869 12.8454 8.70223 12.7892 8.64253 12.7111C8.58282 12.633 8.55353 12.5379 8.55962 12.4417C8.55962 10.1445 8.55962 7.84686 8.55962 5.54893C8.55806 5.5012 8.56329 5.45348 8.57517 5.40706C8.64983 5.15268 8.94016 5.05093 9.19731 5.18888L14.3072 7.90002C14.7745 8.14853 15.2421 8.39704 15.7101 8.64556C15.7925 8.68186 15.8599 8.7427 15.9021 8.81871C15.9442 8.89473 15.9588 8.98171 15.9434 9.06627Z" fill="white"/>
</svg>
