<svg width="23" height="23" viewBox="0 0 23 23" fill="none" xmlns="http://www.w3.org/2000/svg">
<path fill-rule="evenodd" clip-rule="evenodd" d="M11.25 0C17.4632 0 22.5 5.14876 22.5 11.5C22.5 17.8512 17.4632 23 11.25 23C5.03683 23 0 17.8512 0 11.5C0 5.14876 5.03683 0 11.25 0ZM11.25 5.92717C14.8644 5.92717 18.0503 7.88037 19.9248 10.8481C20.1663 11.2305 20.1663 11.7695 19.9248 12.1515C18.0503 15.1196 14.8644 17.0728 11.25 17.0728C7.63523 17.0728 4.44972 15.1196 2.57519 12.1515C2.33367 11.7695 2.33367 11.2305 2.57519 10.8481C4.44972 7.88037 7.63523 5.92717 11.25 5.92717ZM11.25 9.4052C12.3817 9.4052 13.2993 10.3432 13.2993 11.5C13.2993 12.6568 12.3817 13.5948 11.25 13.5948C10.1183 13.5948 9.20074 12.6568 9.20074 11.5C9.20074 11.3591 9.21445 11.2211 9.24011 11.0882C9.24996 11.0378 9.2823 10.9997 9.32906 10.9818C9.37617 10.9638 9.42504 10.9714 9.46476 11.003C9.61171 11.1201 9.79664 11.1899 9.99738 11.1899C10.4766 11.1899 10.865 10.7927 10.865 10.3029C10.865 10.0762 10.7817 9.86951 10.6446 9.71246C10.6112 9.67437 10.6003 9.62514 10.6147 9.5759C10.6291 9.52667 10.6643 9.49145 10.7128 9.47815C10.884 9.43071 11.064 9.4052 11.25 9.4052ZM11.25 7.1415C13.6048 7.1415 15.5134 9.0929 15.5134 11.5C15.5134 13.9071 13.6048 15.8581 11.25 15.8581C8.89523 15.8581 6.9866 13.9071 6.9866 11.5C6.9866 9.0929 8.89523 7.1415 11.25 7.1415ZM11.25 8.53767C12.8507 8.53767 14.1479 9.86376 14.1479 11.5C14.1479 13.1359 12.8507 14.4623 11.25 14.4623C9.64933 14.4623 8.35207 13.1359 8.35207 11.5C8.35207 9.86376 9.64933 8.53767 11.25 8.53767Z" fill="#C0BED6"/>
</svg>
