<svg width="21" height="21" viewBox="0 0 21 21" fill="none" xmlns="http://www.w3.org/2000/svg">
<path d="M18 0H3C1.34325 0 0 1.34325 0 3V13.3433C0 15 1.34325 16.3433 3 16.3433H6.6135L6.5115 19.5217C6.49125 20.151 7.20825 20.5237 7.7115 20.145L12.7703 16.3425H18C19.6567 16.3425 21 14.9992 21 13.3425V3C21 1.34325 19.6567 0 18 0ZM13.4445 10.5255H7.5555C7.18275 10.5255 6.8805 10.2233 6.8805 9.8505C6.8805 9.47775 7.18275 9.1755 7.5555 9.1755H13.4445C13.8173 9.1755 14.1195 9.47775 14.1195 9.8505C14.1195 10.2233 13.8173 10.5255 13.4445 10.5255ZM15.639 7.16775H5.361C4.98825 7.16775 4.686 6.8655 4.686 6.49275C4.686 6.12 4.98825 5.81775 5.361 5.81775H15.6383C16.011 5.81775 16.3132 6.12 16.3132 6.49275C16.3132 6.8655 16.0117 7.16775 15.639 7.16775Z" fill="#C0BED6"/>
</svg>
