<svg width="24" height="24" viewBox="0 0 24 24" fill="none" xmlns="http://www.w3.org/2000/svg">
<path d="M23.4508 10.6742L13.3258 0.549176C12.5936 -0.183059 11.4064 -0.183059 10.6742 0.549176L0.549176 10.6742C-0.183059 11.4064 -0.183059 12.5936 0.549176 13.3258C1.11046 13.8871 1.93888 14.0176 2.62499 13.7184V21.1875C2.62499 22.7408 3.88419 24 5.43749 24H18.5625C20.1158 24 21.375 22.7408 21.375 21.1875V13.7184C22.0611 14.0176 22.8895 13.8871 23.4508 13.3258C24.1831 12.5936 24.1831 11.4064 23.4508 10.6742ZM15.2813 20.25C15.2813 20.7678 14.8615 21.1875 14.3438 21.1875H9.65625C9.13846 21.1875 8.71875 20.7678 8.71875 20.25V14.625C8.71875 14.1072 9.13846 13.6875 9.65625 13.6875H14.3438C14.8615 13.6875 15.2813 14.1072 15.2813 14.625V20.25Z" fill="#66B4FF"/>
</svg>
