<svg width="18" height="23" viewBox="0 0 18 23" fill="none" xmlns="http://www.w3.org/2000/svg">
<path d="M16.739 13.6853C16.3774 13.4704 13.7134 11.9908 8.99995 11.9908C4.28617 11.9908 1.62227 13.4706 1.26076 13.6853C0.722719 13.9526 0.319862 14.4184 0.123999 15.001C-0.0762684 15.5967 -0.0328386 16.2342 0.246213 16.7954L2.4889 21.3055C2.87243 22.0761 3.63337 22.5548 4.47481 22.5548H13.5252C14.3667 22.5548 15.1276 22.0761 15.5112 21.3052L17.7537 16.7954C18.0329 16.2342 18.0762 15.597 17.876 15.001C17.6803 14.4184 17.2773 13.9526 16.739 13.6853Z" fill="#C0BED6"/>
<path d="M8.99993 0C6.12133 0 3.77942 2.40882 3.77942 5.36979C3.77942 8.33064 6.12133 10.7396 8.99993 10.7396C11.8785 10.7396 14.2206 8.33064 14.2206 5.36979C14.2206 2.40882 11.8785 0 8.99993 0Z" fill="#C0BED6"/>
</svg>
