<svg width="171" height="171" viewBox="0 0 171 171" fill="none" xmlns="http://www.w3.org/2000/svg">
<g filter="url(#filter0_d_1166_12)">
<circle cx="85.5" cy="81.4798" r="70.2233" fill="white"/>
<g clip-path="url(#clip0_1166_12)">
<path d="M144.189 76.295V83.3681C144.103 83.6156 144.041 83.8703 144.001 84.129C143.423 92.3439 141.084 100.338 137.144 107.57C135.068 111.416 132.545 115.004 129.629 118.259C129.553 118.019 129.493 117.775 129.451 117.527C129.009 112.473 126.633 108.359 123.19 104.799C118.573 100.027 112.829 97.0681 106.663 94.8137C105.277 94.3065 104.385 94.5319 103.23 95.4431C96.1846 100.994 88.2379 102.906 79.4459 100.933C74.8733 99.859 70.6398 97.664 67.1267 94.546C66.9449 94.3847 66.7318 94.2627 66.5007 94.1875C66.2695 94.1123 66.0254 94.0857 65.7835 94.1092C59.6215 95.8893 53.9105 98.5757 48.9837 102.751C45.1325 106.015 42.1971 109.909 40.9525 114.911C40.8116 115.465 40.6942 116.024 40.5298 116.733C32.2732 106.457 27.9335 94.8983 27.3793 81.9779C26.9425 71.5468 29.103 61.604 34.1565 52.4504C43.8879 34.8099 58.8043 24.4398 78.7743 21.8332C92.9111 19.9874 106.104 23.1576 117.963 31.1043C131.78 40.3613 140.211 53.2816 143.249 69.6634C143.681 71.8426 143.888 74.0782 144.189 76.295ZM62.7213 67.3198C62.6414 76.9901 66.0089 84.5939 72.4527 89.9058C77.3559 93.9402 83.067 95.5417 89.398 94.377C95.8465 93.1746 100.693 89.5911 104.267 84.1618C107.767 78.8052 109.329 72.412 108.692 66.045C108.056 59.678 105.26 53.7205 100.768 49.1627C97.0488 45.4109 92.0553 43.1934 86.7777 42.9498C81.5001 42.7062 76.3236 44.4544 72.2742 47.8477C69.3836 50.2228 67.0354 53.1897 65.3876 56.5485C63.7398 59.9073 62.8306 63.5802 62.7213 67.3198Z" fill="#8428AE"/>
</g>
</g>
<defs>
<filter id="filter0_d_1166_12" x="-2.87546e-06" y="1.24603e-05" width="171" height="171" filterUnits="userSpaceOnUse" color-interpolation-filters="sRGB">
<feFlood flood-opacity="0" result="BackgroundImageFix"/>
<feColorMatrix in="SourceAlpha" type="matrix" values="0 0 0 0 0 0 0 0 0 0 0 0 0 0 0 0 0 0 127 0" result="hardAlpha"/>
<feOffset dy="4"/>
<feGaussianBlur stdDeviation="7.6"/>
<feComposite in2="hardAlpha" operator="out"/>
<feColorMatrix type="matrix" values="0 0 0 0 0.0141667 0 0 0 0 0 0 0 0 0 0.708333 0 0 0 0.15 0"/>
<feBlend mode="normal" in2="BackgroundImageFix" result="effect1_dropShadow_1166_12"/>
<feBlend mode="normal" in="SourceGraphic" in2="effect1_dropShadow_1166_12" result="shape"/>
</filter>
<clipPath id="clip0_1166_12">
<rect width="116.265" height="96.4652" fill="white" transform="translate(27.3373 21.307) scale(1.00505)"/>
</clipPath>
</defs>
</svg>
